<svg version="1.1" id="Layer_1" xmlns="http://www.w3.org/2000/svg" xmlns:xlink="http://www.w3.org/1999/xlink" x="0px" y="0px"
	 width="100%" viewBox="0 0 500 500" enable-background="new 0 0 500 500" xml:space="preserve">
<path fill="#000000" opacity="1.000000" stroke="none" 
	d="
M469.000000,501.000000 
	C312.666718,501.000000 156.833405,501.000000 1.000084,501.000000 
	C1.000056,334.333405 1.000056,167.666824 1.000028,1.000173 
	C167.666550,1.000115 334.333099,1.000115 500.999756,1.000058 
	C500.999817,167.666519 500.999817,334.333038 500.999908,500.999756 
	C490.500000,501.000000 480.000000,501.000000 469.000000,501.000000 
M362.408325,251.848465 
	C355.938202,245.660461 348.626434,243.291794 339.461792,244.794510 
	C328.404755,246.607513 321.995575,255.040375 321.102509,263.773651 
	C319.711151,277.379242 324.769867,286.602264 335.638763,289.792511 
	C345.247101,292.612732 356.751465,292.452393 365.585022,281.052277 
	C365.795319,281.837067 365.859100,282.701782 366.237244,283.395020 
	C376.893799,302.928833 395.869781,311.686157 417.644196,306.913635 
	C436.628540,302.752594 452.997345,282.403320 451.769379,263.866333 
	C451.127960,254.183762 448.306061,245.070587 442.464722,236.616699 
	C428.101471,215.829376 394.455780,212.932739 376.338989,230.227203 
	C376.054688,230.451187 375.959839,230.738068 375.402985,231.285278 
	C369.182953,237.016281 365.860962,244.466370 362.408325,251.848465 
M76.560707,289.138031 
	C88.078445,293.740356 99.151604,292.952850 109.275436,285.664459 
	C114.617783,281.818390 116.524132,275.953766 116.913185,269.221039 
	C111.411430,269.221039 106.463959,269.221039 101.596931,269.221039 
	C99.229462,275.530518 96.706085,277.831299 92.035255,278.080353 
	C84.796196,278.466370 80.831581,276.358246 78.081512,270.229523 
	C75.027245,263.422852 75.222351,256.523499 78.070435,249.653870 
	C80.239761,244.421417 84.620056,242.097580 89.778900,242.046661 
	C94.665451,241.998428 99.234932,243.581009 101.085587,249.104691 
	C101.349915,249.893600 102.590111,250.843842 103.411926,250.876266 
	C107.833366,251.050751 112.265335,250.958786 117.192108,250.958786 
	C116.824074,248.766281 116.690582,247.312119 116.329056,245.917023 
	C111.526039,227.382477 86.585991,225.136383 73.777344,232.944046 
	C65.299683,238.111710 61.900665,246.236572 60.811245,256.066132 
	C59.089569,271.600494 65.714394,282.958557 76.560707,289.138031 
M279.830505,248.175247 
	C270.500671,254.980087 267.982086,268.084076 272.551208,278.847107 
	C276.366821,287.835175 287.770721,292.857452 299.426361,290.901642 
	C307.663452,289.519409 314.665802,282.437897 315.593079,274.161987 
	C309.726318,274.523834 303.959900,272.524689 298.591736,277.649414 
	C294.018463,282.015289 286.855438,278.100800 285.610504,270.855072 
	C295.927673,270.855072 306.175507,270.855072 317.989868,270.855072 
	C316.454224,265.169006 315.843628,259.916229 313.660706,255.428207 
	C308.611084,245.046310 292.559967,240.250427 279.830505,248.175247 
M162.951569,284.419891 
	C163.580688,283.461060 164.232986,282.516541 164.835342,281.541199 
	C171.041656,271.492096 170.095581,257.511047 161.157547,249.896912 
	C154.610031,244.319199 146.708405,243.241028 138.418243,245.088608 
	C127.269142,247.573288 122.874763,255.653214 121.114311,265.993073 
	C120.036232,272.325043 124.477386,282.950500 130.236282,286.652283 
	C141.334641,293.786255 152.073425,292.516449 162.951569,284.419891 
M264.951172,271.510437 
	C264.947906,268.010864 265.310852,264.464813 264.873260,261.020386 
	C263.513306,250.315735 261.969025,246.183197 251.000809,244.478607 
	C246.827042,243.829971 242.234558,245.875748 237.376175,246.778366 
	C233.765976,242.600891 228.325394,245.981110 223.388641,245.113693 
	C223.388641,260.391510 223.388641,274.966614 223.388641,289.711060 
	C227.998398,289.711060 232.244171,289.711060 237.008911,289.711060 
	C237.008911,286.462646 236.917297,283.503693 237.027710,280.552277 
	C237.268616,274.112885 237.602661,267.676849 237.917679,261.240356 
	C238.097122,257.573975 240.235336,255.888458 243.716537,255.958832 
	C247.011398,256.025421 250.030930,256.608368 250.192947,260.973114 
	C250.283737,263.419708 250.919098,265.850555 250.956314,268.293854 
	C251.064499,275.394409 250.994675,282.497650 250.994675,289.684143 
	C255.929962,289.684143 260.177094,289.684143 264.951691,289.684143 
	C264.951691,283.748627 264.951691,278.127167 264.951172,271.510437 
M185.775909,245.070862 
	C182.334610,245.070862 178.893311,245.070862 175.433472,245.070862 
	C175.433472,260.384460 175.433472,275.070892 175.433472,289.586121 
	C180.123367,289.586121 184.362961,289.586121 188.952286,289.586121 
	C188.952286,280.185760 188.932617,271.214661 188.960861,262.243744 
	C188.974335,257.964264 191.186798,255.886932 195.466064,255.924652 
	C199.811371,255.962952 201.973236,258.226318 202.028641,263.318878 
	C202.123917,272.075989 202.054993,280.834869 202.054993,289.667236 
	C206.983826,289.667236 211.222366,289.667236 215.861298,289.667236 
	C215.861298,278.700989 216.272339,268.060211 215.718628,257.469818 
	C215.341507,250.256638 211.291214,247.003738 204.430756,244.915756 
	C198.768921,243.192535 194.096069,244.689590 189.712921,247.454498 
	C188.596848,246.613647 187.598755,245.861679 185.775909,245.070862 
z"/>
<path fill="#73C8FB" opacity="1.000000" stroke="none" 
	d="
M376.806854,230.150803 
	C394.455780,212.932739 428.101471,215.829376 442.464722,236.616699 
	C448.306061,245.070587 451.127960,254.183762 451.769379,263.866333 
	C452.997345,282.403320 436.628540,302.752594 417.644196,306.913635 
	C395.869781,311.686157 376.893799,302.928833 366.237244,283.395020 
	C365.859100,282.701782 365.795319,281.837067 365.259277,280.555542 
	C364.682861,277.900604 367.273865,274.711945 362.896606,273.672791 
	C362.648376,269.170013 362.274628,265.090149 362.102570,260.790283 
	C363.358521,260.399597 364.412781,260.228973 365.736694,260.014679 
	C364.773834,257.260162 363.887848,254.725616 363.001892,252.191071 
	C365.860962,244.466370 369.182953,237.016281 375.640442,231.641907 
	C375.877869,236.426788 375.877869,240.855042 375.877869,245.342331 
	C373.699799,245.698029 372.107086,245.958130 370.324707,246.249207 
	C370.324707,249.497314 370.324707,252.538086 370.324707,255.624054 
	C372.288788,255.905487 373.884583,256.134125 375.996796,256.436798 
	C375.996796,264.572937 376.007385,272.518188 375.992676,280.463379 
	C375.984375,284.957886 377.736237,288.677246 382.311279,289.350555 
	C386.926514,290.029755 391.719635,289.500153 396.379303,289.500153 
	C396.564606,288.625793 396.759918,288.143433 396.753937,287.663605 
	C396.703552,283.633209 398.485779,278.475494 391.208282,278.865234 
	C390.568604,278.899506 389.268219,277.339233 389.247803,276.496033 
	C389.084900,269.765015 389.156891,263.028290 389.156891,256.322266 
	C392.049927,256.044006 394.157867,255.841248 396.620361,255.604385 
	C396.620361,252.578568 397.537598,249.265579 396.323120,247.215302 
	C395.392059,245.643494 391.770874,245.665176 388.781769,244.818222 
	C388.781769,240.141403 388.781769,235.410965 388.781769,230.150803 
	C384.399323,230.150803 380.603088,230.150803 376.806854,230.150803 
M441.129974,250.329620 
	C431.329376,242.784897 416.563538,243.120102 408.511169,251.070114 
	C400.776733,258.706268 399.778351,273.076843 406.366180,281.945435 
	C414.010254,292.236084 430.699280,293.945679 440.842133,285.706055 
	C450.439056,277.909882 451.230927,259.027405 441.129974,250.329620 
z"/>
<path fill="#0967C1" opacity="1.000000" stroke="none" 
	d="
M76.184448,289.050171 
	C65.714394,282.958557 59.089569,271.600494 60.811245,256.066132 
	C61.900665,246.236572 65.299683,238.111710 73.777344,232.944046 
	C86.585991,225.136383 111.526039,227.382477 116.329056,245.917023 
	C116.690582,247.312119 116.824074,248.766281 117.192108,250.958786 
	C112.265335,250.958786 107.833366,251.050751 103.411926,250.876266 
	C102.590111,250.843842 101.349915,249.893600 101.085587,249.104691 
	C99.234932,243.581009 94.665451,241.998428 89.778900,242.046661 
	C84.620056,242.097580 80.239761,244.421417 78.070435,249.653870 
	C75.222351,256.523499 75.027245,263.422852 78.081512,270.229523 
	C80.831581,276.358246 84.796196,278.466370 92.035255,278.080353 
	C96.706085,277.831299 99.229462,275.530518 101.596931,269.221039 
	C106.463959,269.221039 111.411430,269.221039 116.913185,269.221039 
	C116.524132,275.953766 114.617783,281.818390 109.275436,285.664459 
	C99.151604,292.952850 88.078445,293.740356 76.184448,289.050171 
z"/>
<path fill="#0967C1" opacity="1.000000" stroke="none" 
	d="
M280.186676,248.057419 
	C292.559967,240.250427 308.611084,245.046310 313.660706,255.428207 
	C315.843628,259.916229 316.454224,265.169006 317.989868,270.855072 
	C306.175507,270.855072 295.927673,270.855072 285.610504,270.855072 
	C286.855438,278.100800 294.018463,282.015289 298.591736,277.649414 
	C303.959900,272.524689 309.726318,274.523834 315.593079,274.161987 
	C314.665802,282.437897 307.663452,289.519409 299.426361,290.901642 
	C287.770721,292.857452 276.366821,287.835175 272.551208,278.847107 
	C267.982086,268.084076 270.500671,254.980087 280.186676,248.057419 
M287.978485,257.414276 
	C287.303436,258.386017 286.628357,259.357788 285.812103,260.532776 
	C291.603851,260.532776 296.727356,260.532776 302.158051,260.532776 
	C298.012451,254.428940 295.473724,253.826797 287.978485,257.414276 
z"/>
<path fill="#0967C1" opacity="1.000000" stroke="none" 
	d="
M162.693054,284.680756 
	C152.073425,292.516449 141.334641,293.786255 130.236282,286.652283 
	C124.477386,282.950500 120.036232,272.325043 121.114311,265.993073 
	C122.874763,255.653214 127.269142,247.573288 138.418243,245.088608 
	C146.708405,243.241028 154.610031,244.319199 161.157547,249.896912 
	C170.095581,257.511047 171.041656,271.492096 164.835342,281.541199 
	C164.232986,282.516541 163.580688,283.461060 162.693054,284.680756 
M138.431656,259.027496 
	C137.604965,262.966736 135.701523,267.078094 136.294907,270.790344 
	C136.763123,273.719391 139.819855,277.023560 142.609207,278.582611 
	C145.728683,280.326172 149.350723,278.767334 151.822525,275.782471 
	C155.081177,271.847412 154.901062,264.245850 151.446899,259.765320 
	C148.477158,255.913177 145.102127,255.563644 138.431656,259.027496 
z"/>
<path fill="#0867C3" opacity="1.000000" stroke="none" 
	d="
M264.951416,272.008087 
	C264.951691,278.127167 264.951691,283.748627 264.951691,289.684143 
	C260.177094,289.684143 255.929962,289.684143 250.994675,289.684143 
	C250.994675,282.497650 251.064499,275.394409 250.956314,268.293854 
	C250.919098,265.850555 250.283737,263.419708 250.192947,260.973114 
	C250.030930,256.608368 247.011398,256.025421 243.716537,255.958832 
	C240.235336,255.888458 238.097122,257.573975 237.917679,261.240356 
	C237.602661,267.676849 237.268616,274.112885 237.027710,280.552277 
	C236.917297,283.503693 237.008911,286.462646 237.008911,289.711060 
	C232.244171,289.711060 227.998398,289.711060 223.388641,289.711060 
	C223.388641,274.966614 223.388641,260.391510 223.388641,245.113693 
	C228.325394,245.981110 233.765976,242.600891 237.376175,246.778366 
	C242.234558,245.875748 246.827042,243.829971 251.000809,244.478607 
	C261.969025,246.183197 263.513306,250.315735 264.873260,261.020386 
	C265.310852,264.464813 264.947906,268.010864 264.951416,272.008087 
z"/>
<path fill="#0967C1" opacity="1.000000" stroke="none" 
	d="
M186.188293,245.090286 
	C187.598755,245.861679 188.596848,246.613647 189.712921,247.454498 
	C194.096069,244.689590 198.768921,243.192535 204.430756,244.915756 
	C211.291214,247.003738 215.341507,250.256638 215.718628,257.469818 
	C216.272339,268.060211 215.861298,278.700989 215.861298,289.667236 
	C211.222366,289.667236 206.983826,289.667236 202.054993,289.667236 
	C202.054993,280.834869 202.123917,272.075989 202.028641,263.318878 
	C201.973236,258.226318 199.811371,255.962952 195.466064,255.924652 
	C191.186798,255.886932 188.974335,257.964264 188.960861,262.243744 
	C188.932617,271.214661 188.952286,280.185760 188.952286,289.586121 
	C184.362961,289.586121 180.123367,289.586121 175.433472,289.586121 
	C175.433472,275.070892 175.433472,260.384460 175.433472,245.070862 
	C178.893311,245.070862 182.334610,245.070862 186.188293,245.090286 
z"/>
<path fill="#0A68C1" opacity="1.000000" stroke="none" 
	d="
M362.771118,274.095764 
	C367.273865,274.711945 364.682861,277.900604 364.901611,280.423035 
	C356.751465,292.452393 345.247101,292.612732 335.638763,289.792511 
	C324.769867,286.602264 319.711151,277.379242 321.102509,263.773651 
	C321.995575,255.040375 328.404755,246.607513 339.461792,244.794510 
	C348.626434,243.291794 355.938202,245.660461 362.705109,252.019775 
	C363.887848,254.725616 364.773834,257.260162 365.736694,260.014679 
	C364.412781,260.228973 363.358521,260.399597 361.660645,260.782349 
	C356.211945,261.207794 351.652344,261.444458 348.091705,256.846008 
	C346.263275,254.484634 339.900757,255.821320 337.886444,258.644989 
	C334.069702,263.995331 333.442200,273.130280 339.788574,278.279816 
	C343.246948,281.085999 348.401581,280.889435 350.092926,277.104980 
	C351.621521,273.684723 353.788086,274.076996 356.305603,274.044830 
	C358.460205,274.017273 360.615906,274.075470 362.771118,274.095764 
z"/>
<path fill="#0569C5" opacity="1.000000" stroke="none" 
	d="
M376.572937,230.188995 
	C380.603088,230.150803 384.399323,230.150803 388.781769,230.150803 
	C388.781769,235.410965 388.781769,240.141403 388.781769,244.818222 
	C391.770874,245.665176 395.392059,245.643494 396.323120,247.215302 
	C397.537598,249.265579 396.620361,252.578568 396.620361,255.604385 
	C394.157867,255.841248 392.049927,256.044006 389.156891,256.322266 
	C389.156891,263.028290 389.084900,269.765015 389.247803,276.496033 
	C389.268219,277.339233 390.568604,278.899506 391.208282,278.865234 
	C398.485779,278.475494 396.703552,283.633209 396.753937,287.663605 
	C396.759918,288.143433 396.564606,288.625793 396.379303,289.500153 
	C391.719635,289.500153 386.926514,290.029755 382.311279,289.350555 
	C377.736237,288.677246 375.984375,284.957886 375.992676,280.463379 
	C376.007385,272.518188 375.996796,264.572937 375.996796,256.436798 
	C373.884583,256.134125 372.288788,255.905487 370.324707,255.624054 
	C370.324707,252.538086 370.324707,249.497314 370.324707,246.249207 
	C372.107086,245.958130 373.699799,245.698029 375.877869,245.342331 
	C375.877869,240.855042 375.877869,236.426788 375.966156,231.543182 
	C375.959839,230.738068 376.054688,230.451187 376.572937,230.188995 
z"/>
<path fill="#0669C6" opacity="1.000000" stroke="none" 
	d="
M441.405975,250.565781 
	C451.230927,259.027405 450.439056,277.909882 440.842133,285.706055 
	C430.699280,293.945679 414.010254,292.236084 406.366180,281.945435 
	C399.778351,273.076843 400.776733,258.706268 408.511169,251.070114 
	C416.563538,243.120102 431.329376,242.784897 441.405975,250.565781 
M417.465302,260.274261 
	C415.055054,265.198669 414.596222,270.429565 417.593414,274.951813 
	C419.094910,277.217285 422.625458,279.474640 425.141144,279.371216 
	C427.888885,279.258209 431.423584,276.990417 432.961700,274.598511 
	C434.576447,272.087463 434.788269,268.282990 434.600708,265.103485 
	C434.367432,261.148956 432.328308,257.805603 428.148834,256.505798 
	C424.070740,255.237549 420.653290,256.348724 417.465302,260.274261 
z"/>
<path fill="#000000" opacity="1.000000" stroke="none" 
	d="
M362.896606,273.672791 
	C360.615906,274.075470 358.460205,274.017273 356.305603,274.044830 
	C353.788086,274.076996 351.621521,273.684723 350.092926,277.104980 
	C348.401581,280.889435 343.246948,281.085999 339.788574,278.279816 
	C333.442200,273.130280 334.069702,263.995331 337.886444,258.644989 
	C339.900757,255.821320 346.263275,254.484634 348.091705,256.846008 
	C351.652344,261.444458 356.211945,261.207794 361.458984,261.002380 
	C362.274628,265.090149 362.648376,269.170013 362.896606,273.672791 
z"/>
<path fill="#000000" opacity="1.000000" stroke="none" 
	d="
M288.266724,257.149109 
	C295.473724,253.826797 298.012451,254.428940 302.158051,260.532776 
	C296.727356,260.532776 291.603851,260.532776 285.812103,260.532776 
	C286.628357,259.357788 287.303436,258.386017 288.266724,257.149109 
z"/>
<path fill="#000000" opacity="1.000000" stroke="none" 
	d="
M138.710114,258.751343 
	C145.102127,255.563644 148.477158,255.913177 151.446899,259.765320 
	C154.901062,264.245850 155.081177,271.847412 151.822525,275.782471 
	C149.350723,278.767334 145.728683,280.326172 142.609207,278.582611 
	C139.819855,277.023560 136.763123,273.719391 136.294907,270.790344 
	C135.701523,267.078094 137.604965,262.966736 138.710114,258.751343 
z"/>
<path fill="#6FC8FD" opacity="1.000000" stroke="none" 
	d="
M417.702698,259.957275 
	C420.653290,256.348724 424.070740,255.237549 428.148834,256.505798 
	C432.328308,257.805603 434.367432,261.148956 434.600708,265.103485 
	C434.788269,268.282990 434.576447,272.087463 432.961700,274.598511 
	C431.423584,276.990417 427.888885,279.258209 425.141144,279.371216 
	C422.625458,279.474640 419.094910,277.217285 417.593414,274.951813 
	C414.596222,270.429565 415.055054,265.198669 417.702698,259.957275 
z"/>
</svg>